{"title":"For Colored Girls 2010 720p.BRRip.x264.Feel-Free","uid":6135597,"size":2580209106,"categoryP":"video","categoryS":"hd___movies","magnet":"?xt=urn:btih:88a4a9d849db9b8a3086e82ab449a33a2c8a8a2b&amp;dn=For+Colored+Girls+2010+720p.BRRip.x264.Feel-Free&amp;tr=udp%3A%2F%2Ftracker.openbittorrent.com%3A80&amp;tr=udp%3A%2F%2Fopen.demonii.com%3A1337&amp;tr=udp%3A%2F%2Ftracker.coppersurfer.tk%3A6969&amp;tr=udp%3A%2F%2Fexodus.desync.com%3A6969","seeders":0,"leechers":1,"uploader":"neon","files":-1,"time":1296293214,"description":"Genre:Drama\nLanguage:English\n &lt;a href=&quot; http://www.imdb.com/title/tt1405500/&quot; rel=&quot;nofollow&quot; target=&quot;_NEW&quot;&gt; http://www.imdb.com/title/tt1405500/&lt;/a&gt;\nSource:1080p.BluRay.x264.SECTOR7\nSubtitles:Romana\n\n\nFormat : MPEG-4\nFormat profile : Base Media\nCodec ID : isom\nFile size : 2.40 GiB\nDuration : 2h 13mn\nOverall bit rate : 2 570 Kbps\nMovie name : For.Colored.Girls.2010.720p.BRRip.x264.Feel-Free\n\n\nVideo\nFormat settings, CABAC : Yes\nFormat settings, ReFrames : 4 frames\nCodec ID : avc1\nCodec ID/Info : Advanced Video Coding\nDuration : 2h 13mn\nBit rate mode : Variable\nBit rate : 2 200 Kbps\nWidth : 1 280 pixels\nHeight : 720 pixels\nDisplay aspect ratio : 16:9\nFrame rate mode : Constant\nFrame rate : 23.976 fps\nColor space : YUV\nChroma subsampling : 4:2:0\nBit depth : 8 bits\nScan type : Progressive\nBits/(Pixel*Frame) : 0.100\nStream size : 2.03 GiB (85%)\nWriting library : x264\n\nAudio\nID : 2\nFormat : AAC\nFormat/Info : Advanced Audio Codec\nFormat version : Version 4\nFormat profile : LC\nCodec ID : 40\nDuration : 2h 13mn\nBit rate mode : Variable\nBit rate : 384 Kbps\nChannel(s) : 6 channels\nChannel positions : Front: L C R, Side: L R, LFE\nSampling rate : 48.0 KHz\nStream size : 367 MiB (15%)\n\n\nPlot:\nEach of the women portray one of the characters represented in the collection of twenty poems, revealing different issues that impact women in general and women of color in particular.\n\nTRAILER: http://www.imdb.com/video/imdb/vi2727282969/\n &lt;a href=&quot;\nhttp://shareimage.org/images/ktkmo7jl7rsv6b74qnn.png&quot; rel=&quot;nofollow&quot; target=&quot;_NEW&quot;&gt;\nhttp://shareimage.org/images/ktkmo7jl7rsv6b74qnn.png&lt;/a&gt; &lt;a href=&quot;\nhttp://shareimage.org/images/bixf74o8ynsue67aqy6k.png&quot; rel=&quot;nofollow&quot; target=&quot;_NEW&quot;&gt;\nhttp://shareimage.org/images/bixf74o8ynsue67aqy6k.png&lt;/a&gt; &lt;a href=&quot;\nhttp://shareimage.org/images/2iib2x2qdh00pdwrzct.png&quot; rel=&quot;nofollow&quot; target=&quot;_NEW&quot;&gt;\nhttp://shareimage.org/images/2iib2x2qdh00pdwrzct.png&lt;/a&gt; &lt;a href=&quot;\nhttp://shareimage.org/images/32ec3t6xk3ddihl4rd39.png&quot; rel=&quot;nofollow&quot; target=&quot;_NEW&quot;&gt;\nhttp://shareimage.org/images/32ec3t6xk3ddihl4rd39.png&lt;/a&gt;","torrent":{"xt":"urn:btih:88a4a9d849db9b8a3086e82ab449a33a2c8a8a2b","amp;dn":"For+Colored+Girls+2010+720p.BRRip.x264.Feel-Free","amp;tr":["udp%3A%2F%2Ftracker.openbittorrent.com%3A80","udp%3A%2F%2Fopen.demonii.com%3A1337","udp%3A%2F%2Ftracker.coppersurfer.tk%3A6969","udp%3A%2F%2Fexodus.desync.com%3A6969"],"infoHash":"88a4a9d849db9b8a3086e82ab449a33a2c8a8a2b","infoHashBuffer":{"type":"Buffer","data":[136,164,169,216,73,219,155,138,48,134,232,42,180,73,163,58,44,138,138,43]},"announce":[],"urlList":[]}}